<?xml version="1.0" encoding="UTF-8" standalone="no"?>
<!DOCTYPE svg PUBLIC "-//W3C//DTD SVG 1.1//EN"
 "http://www.w3.org/Graphics/SVG/1.1/DTD/svg11.dtd">
<!-- Generated by graphviz version 2.43.0 (0)
 -->
<!-- Title: RelationalModel Pages: 1 -->
<svg width="559pt" height="254pt"
 viewBox="0.00 0.00 559.00 253.50" xmlns="http://www.w3.org/2000/svg" xmlns:xlink="http://www.w3.org/1999/xlink">
<g id="graph0" class="graph" transform="scale(1 1) rotate(0) translate(4 249.5)">
<title>RelationalModel</title>
<polygon fill="white" stroke="transparent" points="-4,4 -4,-249.5 555,-249.5 555,4 -4,4"/>
<text text-anchor="middle" x="275.5" y="-230.3" font-family="Times,serif" font-size="14.00">Relational Model Example</text>
<g id="clust1" class="cluster">
<title>cluster_legend</title>
<polygon fill="#f8f9fa" stroke="black" points="40,-123.5 40,-214.5 198,-214.5 198,-123.5 40,-123.5"/>
<text text-anchor="middle" x="119" y="-199.3" font-family="Times,serif" font-size="14.00">Legend</text>
</g>
<!-- Customers -->
<g id="node1" class="node">
<title>Customers</title>
<polygon fill="#0b132b" stroke="transparent" points="8,-87.5 8,-108.5 230,-108.5 230,-87.5 8,-87.5"/>
<polygon fill="none" stroke="black" points="8,-87.5 8,-108.5 230,-108.5 230,-87.5 8,-87.5"/>
<text text-anchor="start" x="80" y="-94.3" font-family="Times,serif" font-size="14.00" fill="white">Customers</text>
<polygon fill="#e9ecef" stroke="transparent" points="8,-66.5 8,-87.5 151,-87.5 151,-66.5 8,-66.5"/>
<polygon fill="none" stroke="black" points="8,-66.5 8,-87.5 151,-87.5 151,-66.5 8,-66.5"/>
<text text-anchor="start" x="11" y="-74.3" font-family="Times,serif" font-weight="bold" font-size="14.00">customer_id (PK)</text>
<polygon fill="none" stroke="black" points="151,-66.5 151,-87.5 230,-87.5 230,-66.5 151,-66.5"/>
<text text-anchor="start" x="155.5" y="-73.3" font-family="Times,serif" font-size="14.00">INTEGER</text>
<polygon fill="none" stroke="black" points="8,-45.5 8,-66.5 151,-66.5 151,-45.5 8,-45.5"/>
<text text-anchor="start" x="41.5" y="-52.3" font-family="Times,serif" font-size="14.00">first_name</text>
<polygon fill="none" stroke="black" points="151,-45.5 151,-66.5 230,-66.5 230,-45.5 151,-45.5"/>
<text text-anchor="start" x="154" y="-52.3" font-family="Times,serif" font-size="14.00">VARCHAR</text>
<polygon fill="none" stroke="black" points="8,-24.5 8,-45.5 151,-45.5 151,-24.5 8,-24.5"/>
<text text-anchor="start" x="43" y="-31.3" font-family="Times,serif" font-size="14.00">last_name</text>
<polygon fill="none" stroke="black" points="151,-24.5 151,-45.5 230,-45.5 230,-24.5 151,-24.5"/>
<text text-anchor="start" x="154" y="-31.3" font-family="Times,serif" font-size="14.00">VARCHAR</text>
<polygon fill="none" stroke="black" points="8,-3.5 8,-24.5 151,-24.5 151,-3.5 8,-3.5"/>
<text text-anchor="start" x="59.5" y="-10.3" font-family="Times,serif" font-size="14.00">email</text>
<polygon fill="none" stroke="black" points="151,-3.5 151,-24.5 230,-24.5 230,-3.5 151,-3.5"/>
<text text-anchor="start" x="154" y="-10.3" font-family="Times,serif" font-size="14.00">VARCHAR</text>
</g>
<!-- Orders -->
<g id="node2" class="node">
<title>Orders</title>
<polygon fill="#0b132b" stroke="transparent" points="332.5,-87.5 332.5,-108.5 543.5,-108.5 543.5,-87.5 332.5,-87.5"/>
<polygon fill="none" stroke="black" points="332.5,-87.5 332.5,-108.5 543.5,-108.5 543.5,-87.5 332.5,-87.5"/>
<text text-anchor="start" x="413" y="-94.3" font-family="Times,serif" font-size="14.00" fill="white">Orders</text>
<polygon fill="#e9ecef" stroke="transparent" points="332.5,-66.5 332.5,-87.5 461.5,-87.5 461.5,-66.5 332.5,-66.5"/>
<polygon fill="none" stroke="black" points="332.5,-66.5 332.5,-87.5 461.5,-87.5 461.5,-66.5 332.5,-66.5"/>
<text text-anchor="start" x="344" y="-74.3" font-family="Times,serif" font-weight="bold" font-size="14.00">order_id (PK)</text>
<polygon fill="none" stroke="black" points="461.5,-66.5 461.5,-87.5 543.5,-87.5 543.5,-66.5 461.5,-66.5"/>
<text text-anchor="start" x="467.5" y="-73.3" font-family="Times,serif" font-size="14.00">INTEGER</text>
<polygon fill="none" stroke="black" points="332.5,-45.5 332.5,-66.5 461.5,-66.5 461.5,-45.5 332.5,-45.5"/>
<text text-anchor="start" x="358" y="-52.3" font-family="Times,serif" font-size="14.00">order_date</text>
<polygon fill="none" stroke="black" points="461.5,-45.5 461.5,-66.5 543.5,-66.5 543.5,-45.5 461.5,-45.5"/>
<text text-anchor="start" x="482.5" y="-52.3" font-family="Times,serif" font-size="14.00">DATE</text>
<polygon fill="#f1f8ff" stroke="transparent" points="332.5,-24.5 332.5,-45.5 461.5,-45.5 461.5,-24.5 332.5,-24.5"/>
<polygon fill="none" stroke="black" points="332.5,-24.5 332.5,-45.5 461.5,-45.5 461.5,-24.5 332.5,-24.5"/>
<text text-anchor="start" x="335.5" y="-32.3" font-family="Times,serif" font-style="italic" font-size="14.00">customer_id (FK)</text>
<polygon fill="none" stroke="black" points="461.5,-24.5 461.5,-45.5 543.5,-45.5 543.5,-24.5 461.5,-24.5"/>
<text text-anchor="start" x="467.5" y="-31.3" font-family="Times,serif" font-size="14.00">INTEGER</text>
<polygon fill="none" stroke="black" points="332.5,-3.5 332.5,-24.5 461.5,-24.5 461.5,-3.5 332.5,-3.5"/>
<text text-anchor="start" x="350" y="-10.3" font-family="Times,serif" font-size="14.00">total_amount</text>
<polygon fill="none" stroke="black" points="461.5,-3.5 461.5,-24.5 543.5,-24.5 543.5,-3.5 461.5,-3.5"/>
<text text-anchor="start" x="464.5" y="-10.3" font-family="Times,serif" font-size="14.00">NUMERIC</text>
</g>
<!-- Customers&#45;&gt;Orders -->
<g id="edge1" class="edge">
<title>Customers&#45;&gt;Orders</title>
<path fill="none" stroke="#1e88e5" d="M246.56,-56.5C272.11,-56.5 298.81,-56.5 323.85,-56.5"/>
<ellipse fill="none" stroke="#1e88e5" cx="242.3" cy="-56.5" rx="4" ry="4"/>
<text text-anchor="middle" x="281" y="-60.3" font-family="Times,serif" font-size="14.00" fill="#1e88e5"> places</text>
</g>
<!-- key -->
<g id="node3" class="node">
<title>key</title>
<polygon fill="#e9ecef" stroke="transparent" points="58,-158.5 58,-177.5 85,-177.5 85,-158.5 58,-158.5"/>
<text text-anchor="start" x="60" y="-165.3" font-family="Times,serif" font-weight="bold" font-size="14.00">PK</text>
<text text-anchor="start" x="89" y="-164.3" font-family="Times,serif" font-size="14.00">Primary Key</text>
<polygon fill="#f1f8ff" stroke="transparent" points="58,-137.5 58,-156.5 85,-156.5 85,-137.5 58,-137.5"/>
<text text-anchor="start" x="61" y="-144.3" font-family="Times,serif" font-style="italic" font-size="14.00">FK</text>
<text text-anchor="start" x="90.5" y="-143.3" font-family="Times,serif" font-size="14.00">Foreign Key</text>
</g>
</g>
</svg>
